<svg width="23" height="23" viewBox="0 0 23 23" fill="none" xmlns="http://www.w3.org/2000/svg">
<path d="M15.8595 11.5L22.3982 5.05018C23.2006 4.25869 23.2006 2.97543 22.3982 2.1833L20.945 0.749863C20.1426 -0.0416211 18.8417 -0.0416211 18.0387 0.749863L11.5 7.19969L4.96134 0.749863C4.15895 -0.0416211 2.85801 -0.0416211 2.05497 0.749863L0.60179 2.1833C-0.200597 2.97478 -0.200597 4.25805 0.60179 5.05018L7.14045 11.5L0.60179 17.9498C-0.200597 18.7413 -0.200597 20.0246 0.60179 20.8167L2.05497 22.2501C2.85736 23.0416 4.15895 23.0416 4.96134 22.2501L11.5 15.8003L18.0387 22.2501C18.8411 23.0416 20.1426 23.0416 20.945 22.2501L22.3982 20.8167C23.2006 20.0252 23.2006 18.742 22.3982 17.9498L15.8595 11.5Z" fill="white"/>
</svg>
